<?xml version="1.0" standalone="no"?>
<!DOCTYPE svg PUBLIC "-//W3C//DTD SVG 20010904//EN"
 "http://www.w3.org/TR/2001/REC-SVG-20010904/DTD/svg10.dtd">
<svg version="1.0" xmlns="http://www.w3.org/2000/svg"
 width="500.000000pt" height="500.000000pt" viewBox="0 0 500.000000 500.000000"
 preserveAspectRatio="xMidYMid meet">
<metadata>
Created by potrace 1.11, written by Peter Selinger 2001-2013
</metadata>
<g transform="translate(0.000000,500.000000) scale(0.100000,-0.100000)"
fill="#000000" stroke="none">
<path d="M0 4686 l0 -314 163 75 c418 193 854 343 1257 432 244 55 439 85 740
114 19 2 -459 5 -1062 5 l-1098 2 0 -314z"/>
<path d="M2950 4988 c612 -57 1273 -242 1892 -529 82 -38 152 -69 154 -69 2 0
4 137 4 305 l0 305 -1072 -1 c-698 -1 -1040 -5 -978 -11z"/>
<path d="M2373 4903 l-33 -4 0 -220 0 -219 33 0 c17 0 49 3 70 6 l37 7 -2 216
-3 216 -35 1 c-19 1 -50 -1 -67 -3z"/>
<path d="M2580 4693 l0 -220 38 -7 c20 -3 54 -6 75 -6 l37 0 0 220 0 220 -22
0 c-13 0 -47 3 -75 6 l-53 7 0 -220z"/>
<path d="M2071 4884 c-612 -60 -1291 -255 -1901 -545 l-165 -79 -3 -229 -2
-230 182 89 c499 242 981 404 1471 495 155 28 438 65 503 65 78 0 74 -13 74
231 0 169 -3 219 -12 218 -7 -1 -74 -7 -147 -15z"/>
<path d="M2830 4679 l0 -219 23 -4 c12 -3 60 -8 107 -11 334 -25 788 -123
1161 -251 253 -86 596 -233 797 -339 l82 -44 0 230 0 230 -152 74 c-633 304
-1324 497 -1965 548 l-53 4 0 -218z"/>
<path d="M2240 4334 c-404 -64 -757 -238 -1042 -512 -180 -174 -288 -320 -394
-532 -291 -584 -243 -1289 125 -1836 231 -345 572 -608 961 -742 220 -76 231
-77 645 -77 l370 0 115 31 c734 201 1266 777 1395 1509 23 127 30 358 16 490
-79 730 -571 1342 -1276 1584 -212 74 -326 92 -590 97 -172 2 -254 -1 -325
-12z m458 -255 c201 -21 408 -82 585 -171 87 -43 108 -71 89 -113 -7 -14 -23
-30 -37 -37 -22 -10 -38 -5 -132 40 -197 93 -357 136 -576 153 -145 11 -169
22 -169 75 0 63 51 74 240 53z m-535 -67 c20 -18 22 -61 5 -84 -7 -9 -58 -30
-113 -48 -186 -60 -384 -172 -524 -295 -35 -31 -75 -63 -87 -72 -31 -20 -69
-10 -90 22 -25 39 -4 74 93 155 192 160 400 273 608 331 63 17 79 16 108 -9z
m1542 -413 c55 -51 138 -152 200 -244 91 -137 205 -396 205 -468 0 -39 -26
-67 -60 -67 -42 0 -57 19 -91 115 -75 217 -167 371 -328 548 -66 73 -75 103
-41 137 31 31 65 25 115 -21z m-932 -69 c199 -44 375 -141 527 -290 110 -107
163 -182 226 -314 197 -417 102 -900 -240 -1224 -198 -187 -434 -286 -716
-299 -510 -23 -970 310 -1107 802 -37 134 -43 342 -13 485 67 325 275 595 575
745 116 58 244 99 360 114 98 14 284 4 388 -19z m-1559 -242 c9 -12 16 -29 16
-37 0 -8 -24 -64 -54 -125 -91 -186 -139 -363 -152 -566 -5 -86 -10 -109 -27
-127 -24 -27 -54 -29 -86 -6 -24 16 -24 17 -18 152 6 139 32 279 77 411 29 85
122 280 144 303 25 25 81 22 100 -5z m2936 -758 c25 -25 26 -95 6 -250 -26
-189 -73 -344 -157 -512 -54 -109 -84 -137 -127 -122 -14 5 -33 21 -41 35 -13
24 -11 32 38 127 95 186 149 385 158 580 5 91 10 118 25 137 24 31 70 33 98 5z
m-3097 -407 c8 -10 27 -54 42 -98 63 -190 165 -365 306 -525 69 -78 80 -95 77
-123 -4 -38 -41 -63 -81 -53 -33 8 -157 148 -237 266 -73 109 -149 259 -189
376 -35 104 -37 121 -15 152 19 27 74 30 97 5z m2642 -696 c8 -12 15 -30 15
-39 0 -56 -233 -238 -430 -337 -149 -74 -326 -137 -359 -126 -50 16 -69 77
-33 107 9 8 66 32 125 52 195 66 386 176 524 301 86 78 126 88 158 42z m-1844
-266 c195 -93 347 -134 569 -152 123 -10 137 -13 158 -36 27 -30 28 -43 1 -77
-18 -23 -27 -26 -87 -26 -79 0 -206 15 -312 36 -187 38 -475 158 -498 208 -18
41 12 95 54 96 6 0 58 -22 115 -49z"/>
<path d="M2425 3454 c-252 -38 -429 -121 -593 -278 -150 -144 -241 -310 -284
-516 -16 -77 -19 -118 -15 -220 8 -175 46 -306 131 -450 338 -572 1148 -657
1601 -168 504 544 237 1419 -490 1603 -97 25 -277 40 -350 29z m16 -223 c20
-16 22 -23 14 -47 -9 -24 -19 -30 -85 -46 -41 -10 -113 -37 -160 -59 -116 -57
-236 -177 -300 -299 -49 -92 -73 -108 -111 -74 -25 23 -25 28 14 109 95 197
292 358 508 415 93 24 92 24 120 1z m467 -71 c42 -26 48 -44 28 -75 -19 -29
-33 -31 -81 -8 -43 21 -55 55 -30 83 23 25 42 25 83 0z m240 -200 c71 -77 135
-215 159 -343 24 -129 6 -320 -40 -416 -15 -32 -57 -39 -82 -15 -18 18 -18 23
11 124 24 86 24 250 0 339 -21 76 -72 181 -115 235 -35 44 -38 62 -14 88 23
26 50 22 81 -12z m-490 -105 c65 -20 148 -80 194 -140 145 -191 78 -480 -135
-585 -89 -43 -170 -57 -254 -41 -319 59 -450 420 -236 651 113 123 267 163
431 115z m-838 -345 c38 -38 15 -120 -34 -120 -30 0 -45 19 -53 63 -4 27 -1
39 16 56 26 26 45 27 71 1z m203 -493 c148 -148 301 -211 517 -211 69 -1 131
-5 138 -9 19 -13 15 -65 -8 -77 -33 -18 -163 -23 -248 -11 -187 27 -362 117
-481 247 -44 47 -50 73 -25 98 26 27 51 18 107 -37z m941 -110 c30 -22 17 -69
-26 -92 -30 -16 -40 -17 -62 -7 -17 7 -26 19 -26 34 0 28 8 39 40 61 29 20 50
21 74 4z"/>
<path d="M2454 2766 c-228 -56 -306 -341 -137 -497 66 -61 123 -83 213 -83 91
0 154 27 217 92 110 112 108 292 -4 407 -70 72 -190 106 -289 81z"/>
<path d="M1645 4283 c-11 -2 -80 -18 -153 -34 -443 -97 -972 -291 -1384 -507
l-108 -56 0 -1191 0 -1190 178 -89 c297 -149 615 -278 897 -364 133 -41 418
-114 490 -126 38 -6 35 -4 -37 37 -353 204 -620 482 -796 827 -104 202 -156
357 -192 566 -145 842 288 1685 1068 2080 96 48 108 63 37 47z"/>
<path d="M3427 4246 c376 -183 692 -489 888 -858 153 -290 225 -585 225 -916
-1 -529 -210 -1018 -596 -1392 -145 -141 -269 -234 -426 -321 -69 -37 -71 -39
-33 -33 101 17 407 101 580 159 248 83 460 171 723 300 l212 105 0 1205 0
1205 -177 89 c-376 187 -724 321 -1083 415 -148 39 -360 86 -387 86 -9 0 24
-20 74 -44z"/>
<path d="M0 961 l0 -228 133 -63 c625 -298 1256 -485 1867 -554 74 -8 156 -17
183 -18 l47 -3 0 216 0 216 -92 12 c-51 6 -148 18 -215 26 -561 69 -1156 252
-1750 540 l-173 84 0 -228z"/>
<path d="M4931 1145 c-429 -231 -978 -427 -1471 -525 -179 -35 -245 -45 -532
-81 l-98 -12 0 -215 0 -215 88 6 c592 43 1304 244 1950 552 l132 64 0 230 c0
127 -1 231 -2 231 -2 0 -32 -16 -67 -35z"/>
<path d="M0 310 l0 -310 1048 2 c576 1 1029 3 1007 5 -216 20 -584 88 -831
153 -354 93 -835 269 -1106 406 -38 19 -81 39 -94 44 l-24 10 0 -310z"/>
<path d="M4908 565 c-48 -25 -150 -72 -228 -105 -570 -244 -1133 -395 -1690
-453 -19 -2 425 -5 988 -5 l1022 -2 0 305 c0 168 -1 305 -2 304 -2 0 -42 -20
-90 -44z"/>
<path d="M2340 300 l0 -210 70 0 70 0 0 204 c0 232 7 216 -92 216 l-48 0 0
-210z"/>
<path d="M2593 503 c-10 -3 -13 -55 -13 -209 l0 -204 75 0 75 0 0 210 0 210
-62 -1 c-35 0 -69 -3 -75 -6z"/>
</g>
</svg>
