<svg xmlns="http://www.w3.org/2000/svg" width="136" height="28" viewBox="0 0 100.36 16.36"><defs><style>.cls-1{fill:#fff;}.cls-2{fill:#00bee5;}</style></defs><title>Asset 3</title><g id="Layer_2" data-name="Layer 2"><g id="Layer_1-2" data-name="Layer 1"><path class="cls-1" d="M39.53,3.82V14.23c0,.21-.1.32-.3.32a.28.28,0,0,1-.31-.32V3.53A.33.33,0,0,1,39,3.31a.32.32,0,0,1,.23-.09h3.66a5.9,5.9,0,0,1,1.23.12,2.35,2.35,0,0,1,1,.41,2,2,0,0,1,.62.78,2.93,2.93,0,0,1,.22,1.22c0,1.73-1,2.6-2.91,2.6h-.57a.31.31,0,0,1-.22-.09A.33.33,0,0,1,42.12,8a.29.29,0,0,1,.09-.21.35.35,0,0,1,.22-.08H43a3,3,0,0,0,1.69-.42,1.78,1.78,0,0,0,.61-1.57,2.39,2.39,0,0,0-.17-1,1.43,1.43,0,0,0-.49-.59,1.92,1.92,0,0,0-.76-.29,5.06,5.06,0,0,0-1-.09Zm5.06,9.38a.28.28,0,0,1,0,.22.37.37,0,0,1-.12.21.35.35,0,0,1-.18,0,.27.27,0,0,1-.24-.15L40.52,8.24a.28.28,0,0,1,.09-.43.29.29,0,0,1,.17,0,.38.38,0,0,1,.26.13Zm-3.74-2.46a.26.26,0,0,1,.3.29v3.2c0,.21-.1.32-.3.32a.31.31,0,0,1-.22-.09.29.29,0,0,1-.09-.23V11a.29.29,0,0,1,.09-.21A.35.35,0,0,1,40.85,10.74Zm3.17-1,3,4.36a.27.27,0,0,1-.08.42.25.25,0,0,1-.16.06.32.32,0,0,1-.26-.13L43.23,9.6a.25.25,0,0,1,0-.31.29.29,0,0,1,.27-.17,4,4,0,0,0,1.42-.24A3.15,3.15,0,0,0,46,8.2a3,3,0,0,0,.71-1.07A3.66,3.66,0,0,0,47,5.72a3.28,3.28,0,0,0-.88-2.55,3.83,3.83,0,0,0-2.6-.78H40.87c-.2,0-.29-.11-.29-.31s.09-.3.29-.3h2.61a4.41,4.41,0,0,1,3,1,3.81,3.81,0,0,1,1.07,3,3.89,3.89,0,0,1-1,2.73A4.15,4.15,0,0,1,44,9.71Zm1,4.19a.3.3,0,0,1,.2.16.39.39,0,0,1,0,.26h0a.29.29,0,0,1-.31.23.46.46,0,0,1-.28-.18.28.28,0,0,1,0-.25v0a.32.32,0,0,1,.31-.22Z"/><path class="cls-1" d="M50.78,7.67a.31.31,0,0,1-.22-.09.33.33,0,0,1-.09-.23V2a.33.33,0,0,1,.09-.22.31.31,0,0,1,.22-.09.26.26,0,0,1,.21.09.33.33,0,0,1,.09.22V7.06H55.8a.33.33,0,0,1,.22.08.26.26,0,0,1,.1.21.3.3,0,0,1-.1.23.29.29,0,0,1-.22.09Zm0,7a.31.31,0,0,1-.31-.31V9a.31.31,0,0,1,.31-.31h5a.29.29,0,0,1,.22.09.28.28,0,0,1,.1.22.24.24,0,0,1-.1.21.29.29,0,0,1-.22.09H51.08V14h6.38a.26.26,0,0,1,.29.3.3.3,0,0,1-.08.22.27.27,0,0,1-.21.09ZM52.29,2.33A.29.29,0,0,1,52,2a.26.26,0,0,1,.29-.29h5.17a.3.3,0,0,1,.22.08.27.27,0,0,1,.09.21.29.29,0,0,1-.09.22.31.31,0,0,1-.22.09Zm5.13,1a.31.31,0,0,1,.31.31.26.26,0,0,1-.09.21.29.29,0,0,1-.22.08H52.66V6a.29.29,0,0,1-.09.22.28.28,0,0,1-.22.1.24.24,0,0,1-.21-.1A.29.29,0,0,1,52.05,6V3.64a.29.29,0,0,1,.09-.22.26.26,0,0,1,.21-.09ZM52.35,10a.3.3,0,0,1,.22.08.29.29,0,0,1,.09.23v2.17h3.68a.31.31,0,0,1,.31.31.26.26,0,0,1-.09.21.31.31,0,0,1-.22.09h-4a.27.27,0,0,1-.3-.3V10.28C52.05,10.07,52.15,10,52.35,10Zm5.13,2.46a.28.28,0,0,1,.18.16.33.33,0,0,1,0,.24v0a.32.32,0,0,1-.31.22.41.41,0,0,1-.28-.17.36.36,0,0,1,0-.27.34.34,0,0,1,.32-.22Z"/><path class="cls-1" d="M60,14.56c-.25-.07-.34-.2-.28-.4L64.21,2a.31.31,0,0,1,.29-.2h.26a.31.31,0,0,1,.29.2l2.19,6.68a.29.29,0,0,1,0,.24.24.24,0,0,1-.18.14H67a.31.31,0,0,1-.3-.22l-2-6.21L60.25,14.38A.31.31,0,0,1,60,14.56Zm1.73,0a.45.45,0,0,1-.28-.17.34.34,0,0,1,.28-.51h.11a.3.3,0,0,1,.18.17.31.31,0,0,1,0,.25v0A.31.31,0,0,1,61.69,14.6Zm.33-1c-.25-.07-.34-.21-.28-.41L64.3,5.64a.33.33,0,0,1,.29-.2h.1a.28.28,0,0,1,.18.16.31.31,0,0,1,0,.23l-2.58,7.54A.31.31,0,0,1,62,13.59Zm6.38,0a.25.25,0,0,1-.27-.2L67.67,12H64a.29.29,0,0,1-.22-.09.35.35,0,0,1-.08-.22.27.27,0,0,1,.3-.3h3.88a.31.31,0,0,1,.29.2l.52,1.6a.33.33,0,0,1,0,.22.26.26,0,0,1-.19.15Zm2,1a.32.32,0,0,1-.3-.18l-1.47-4H64.52a.3.3,0,0,1-.23-.09.35.35,0,0,1-.08-.22c0-.2.1-.3.31-.3h4.3a.3.3,0,0,1,.28.17l1.54,4.23a.27.27,0,0,1-.18.39Zm-2-5.5a.3.3,0,0,1-.3-.2L66.21,3.22a.27.27,0,0,1,.19-.39l.09,0a.28.28,0,0,1,.29.2l1.86,5.65a.33.33,0,0,1,0,.24.3.3,0,0,1-.18.15Z"/><path class="cls-1" d="M77.52,14.58a.29.29,0,0,1-.29-.2L72.89,2.22a.29.29,0,0,1,0-.24.35.35,0,0,1,.16-.16h.11a.28.28,0,0,1,.28.2L77.8,14.16a.29.29,0,0,1-.19.4Zm1.4,0a.31.31,0,0,1-.29-.22L75,3.49a.27.27,0,0,1,.19-.38s0,0,.09,0a.26.26,0,0,1,.29.2l3.37,10L82.87,2a.26.26,0,0,1,.28-.22h.11a.29.29,0,0,1,.17.16.31.31,0,0,1,0,.23L79.2,14.36A.26.26,0,0,1,78.92,14.58Zm-.07-4.76a.36.36,0,0,1-.27-.16.31.31,0,0,1,0-.23l2.19-6.36a.3.3,0,0,1,.3-.2s.07,0,.09,0a.28.28,0,0,1,.18.14.33.33,0,0,1,0,.24L79.14,9.62A.31.31,0,0,1,78.85,9.82ZM81.4,2.44a.41.41,0,0,1-.27-.17.36.36,0,0,1,0-.27c0-.11.09-.17.17-.19a1,1,0,0,1,.25,0A.37.37,0,0,1,81.7,2a.42.42,0,0,1,0,.25h0A.33.33,0,0,1,81.4,2.44Z"/><path class="cls-1" d="M87.51,13.24V8.48H86.13c-.2,0-.29-.1-.29-.3V2a.3.3,0,0,1,.08-.22.26.26,0,0,1,.21-.09.31.31,0,0,1,.31.31V7.87H87.8A.29.29,0,0,1,88,8a.32.32,0,0,1,.1.22v5.06a.27.27,0,0,1-.1.21.29.29,0,0,1-.22.08A.25.25,0,0,1,87.51,13.24Zm-1.66-3.4a.27.27,0,0,1,.3-.3c.21,0,.31.1.31.3v4.45c0,.19-.1.29-.31.29a.26.26,0,0,1-.3-.29Zm1.84,4.74a.28.28,0,0,1-.18-.16.39.39,0,0,1,0-.26v0a.32.32,0,0,1,.31-.22h.11a.29.29,0,0,1,.21.16.39.39,0,0,1,0,.26v0a.29.29,0,0,1-.32.22Zm.43-8a.3.3,0,0,1-.1.21.33.33,0,0,1-.22.08.26.26,0,0,1-.29-.29V3.38a.35.35,0,0,1,.08-.22.29.29,0,0,1,.21-.09.29.29,0,0,1,.22.09.32.32,0,0,1,.1.22Z"/><path class="cls-1" d="M100.11,4.6a.25.25,0,0,1,0,.42l-8.07,9h7.8a.31.31,0,0,1,.22.09.26.26,0,0,1,.09.21.29.29,0,0,1-.09.22.31.31,0,0,1-.22.09H91.39a.26.26,0,0,1-.28-.18.27.27,0,0,1,0-.33l8.53-9.46a.28.28,0,0,1,.22-.09A.29.29,0,0,1,100.11,4.6Zm.22-2.71a.27.27,0,0,1,0,.33L91.9,11.53a.34.34,0,0,1-.24.11.45.45,0,0,1-.2-.09.35.35,0,0,1-.1-.21.28.28,0,0,1,.08-.22l7.93-8.8H91.59c-.2,0-.29-.1-.29-.3a.3.3,0,0,1,.08-.22.27.27,0,0,1,.21-.09h8.46A.26.26,0,0,1,100.33,1.89Zm-4.4,2H92.86c-.21,0-.31-.1-.31-.3a.29.29,0,0,1,.31-.31h3.07a.29.29,0,0,1,.22.09.31.31,0,0,1,.09.22.26.26,0,0,1-.09.21A.29.29,0,0,1,95.93,3.92Zm-1.27,8.44h4.16a.3.3,0,0,1,.22.08.27.27,0,0,1,.09.21.29.29,0,0,1-.09.23.3.3,0,0,1-.22.08H94.66a.3.3,0,0,1-.22-.08.29.29,0,0,1-.09-.23.27.27,0,0,1,.09-.21A.3.3,0,0,1,94.66,12.36Zm5.3,0a.25.25,0,0,1,.18.15.36.36,0,0,1,0,.27.28.28,0,0,1-.31.22.41.41,0,0,1-.28-.17.28.28,0,0,1,0-.25v0a.31.31,0,0,1,.31-.22Z"/><path class="cls-2" d="M33.49,9.78H28.91a.65.65,0,0,1-.51-.25c-.81-1-5.2-6-11.22-6S6.52,8.54,5.66,9.55a.67.67,0,0,1-.5.23H.84a.09.09,0,0,1-.08-.09.09.09,0,0,1,.08-.08H5.16a.5.5,0,0,0,.38-.17c.87-1,5.52-6.1,11.64-6.1S27.7,8.41,28.53,9.43a.49.49,0,0,0,.38.18h4.58a.08.08,0,0,1,.08.08A.08.08,0,0,1,33.49,9.78Z"/><path class="cls-2" d="M17.18,13C11.06,13,6.41,7.92,5.54,6.9a.5.5,0,0,0-.38-.17H.84a.09.09,0,0,1-.08-.09.09.09,0,0,1,.08-.08H5.16a.64.64,0,0,1,.5.23c.86,1,5.48,6,11.52,6s10.41-5,11.22-6a.67.67,0,0,1,.51-.24h4.58a.08.08,0,0,1,.08.08.08.08,0,0,1-.08.09H28.91a.46.46,0,0,0-.38.18C27.7,7.92,23.28,13,17.18,13Z"/><path class="cls-2" d="M5.69,11.16H2.36a.09.09,0,0,1-.08-.08A.08.08,0,0,1,2.36,11H5.69a.27.27,0,0,0,.21-.09L8.48,8.43a.31.31,0,0,0,.09-.22A.28.28,0,0,0,8.48,8L5.82,5.43a.35.35,0,0,0-.22-.08H2.36a.09.09,0,0,1-.08-.09.09.09,0,0,1,.08-.08H5.6a.51.51,0,0,1,.33.13L8.59,7.87a.46.46,0,0,1,0,.68L6,11A.51.51,0,0,1,5.69,11.16Z"/><path class="cls-2" d="M8.52,6.82l-.06,0L5.7,4a.38.38,0,0,0-.28-.12H.84a.08.08,0,1,1,0-.16H5.42a.59.59,0,0,1,.4.16L8.58,6.68a.09.09,0,0,1,0,.12Z"/><path class="cls-2" d="M5.42,12.62H.84a.09.09,0,0,1-.08-.08.08.08,0,0,1,.08-.08H5.42a.42.42,0,0,0,.28-.12L8.46,9.56a.08.08,0,0,1,.12.12L5.82,12.46A.59.59,0,0,1,5.42,12.62Z"/><circle class="cls-2" cx="0.52" cy="3.82" r="0.52"/><circle class="cls-2" cx="1.93" cy="5.26" r="0.52"/><circle class="cls-2" cx="1.93" cy="11.08" r="0.52"/><circle class="cls-2" cx="0.52" cy="6.68" r="0.52"/><circle class="cls-2" cx="0.52" cy="9.69" r="0.52"/><circle class="cls-2" cx="0.52" cy="12.54" r="0.52"/><path class="cls-2" d="M31.88,11.16H28.55a.51.51,0,0,1-.33-.13L25.65,8.55a.46.46,0,0,1,0-.68l2.66-2.56a.51.51,0,0,1,.33-.13h3.24a.09.09,0,0,1,.08.08.09.09,0,0,1-.08.09H28.64a.3.3,0,0,0-.21.08L25.76,8a.28.28,0,0,0-.09.22.31.31,0,0,0,.09.22l2.58,2.48a.29.29,0,0,0,.21.09h3.33a.08.08,0,0,1,.08.08A.09.09,0,0,1,31.88,11.16Z"/><path class="cls-2" d="M25.72,6.82l-.06,0a.09.09,0,0,1,0-.12L28.43,3.9a.55.55,0,0,1,.39-.16H33.4a.08.08,0,0,1,0,.16H28.82a.39.39,0,0,0-.28.12L25.78,6.8Z"/><path class="cls-2" d="M33.4,12.62H28.82a.55.55,0,0,1-.39-.16L25.66,9.68a.08.08,0,1,1,.12-.12l2.76,2.78a.44.44,0,0,0,.28.12H33.4a.08.08,0,0,1,.08.08A.09.09,0,0,1,33.4,12.62Z"/><circle class="cls-2" cx="33.73" cy="3.82" r="0.52"/><circle class="cls-2" cx="32.31" cy="5.26" r="0.52"/><circle class="cls-2" cx="32.31" cy="11.08" r="0.52"/><circle class="cls-2" cx="33.73" cy="6.68" r="0.52"/><circle class="cls-2" cx="33.73" cy="9.69" r="0.52"/><circle class="cls-2" cx="33.73" cy="12.54" r="0.52"/><path class="cls-2" d="M17.18,13.05A4.84,4.84,0,1,1,22,8.21,4.85,4.85,0,0,1,17.18,13.05Zm0-9.52a4.68,4.68,0,1,0,4.67,4.68A4.69,4.69,0,0,0,17.18,3.53Z"/><path class="cls-2" d="M17.18,10.83A2.63,2.63,0,1,1,19.8,8.21,2.62,2.62,0,0,1,17.18,10.83Zm0-5.08a2.46,2.46,0,1,0,2.46,2.46A2.47,2.47,0,0,0,17.18,5.75Z"/><path class="cls-2" d="M17.18,9.15a.94.94,0,1,1,.94-.94A.95.95,0,0,1,17.18,9.15Zm0-1.72a.78.78,0,0,0-.78.78.78.78,0,1,0,.78-.78Z"/><path class="cls-2" d="M17.18,10.09a2,2,0,0,1-.86-.2l0,0h-.05a1.88,1.88,0,0,1-.52-.45.07.07,0,0,1,0-.11.08.08,0,0,1,.11,0,2.09,2.09,0,0,0,.48.41l0,0h0a1.72,1.72,0,0,0,.78.18,1.23,1.23,0,0,0,.27,0,.1.1,0,0,1,.09.07.08.08,0,0,1-.07.1Zm.9-.24a.12.12,0,0,1-.08,0,.11.11,0,0,1,0-.12l.08,0a.07.07,0,0,1,.11,0,.08.08,0,0,1,0,.12l-.08.05Zm.78-.91h0a.08.08,0,0,1,0-.11,1.78,1.78,0,0,0,.11-.61.08.08,0,0,1,0-.05.08.08,0,0,1,0-.05,1.74,1.74,0,0,0-.38-1,.08.08,0,0,1,.12-.1,1.79,1.79,0,0,1,.42,1.08.07.07,0,0,1,0,.05s0,0,0,0h0a1.9,1.9,0,0,1-.13.67A.07.07,0,0,1,18.86,8.94Zm-3.48-.55a.09.09,0,0,1-.08-.08s0-.06,0-.1a.09.09,0,0,1,.09-.08h0a.09.09,0,0,1,.08.08V8.3a.08.08,0,0,1-.08.09Zm.11-.74h0a.07.07,0,0,1,0-.1,1.92,1.92,0,0,1,.73-.91h.05s0,0,0,0a2.1,2.1,0,0,1,.65-.23.08.08,0,0,1,.09.07.07.07,0,0,1-.07.09,2.08,2.08,0,0,0-.59.21l0,0,0,0a1.76,1.76,0,0,0-.67.83A.08.08,0,0,1,15.49,7.65Zm2.58-.92h0l-.08,0A.08.08,0,1,1,18,6.53l.09,0a.08.08,0,0,1,0,.11A.07.07,0,0,1,18.07,6.73Z"/><path class="cls-2" d="M17.18,12.11a3.9,3.9,0,0,1-1.95-.52.1.1,0,0,1,0-.12.08.08,0,0,1,.11,0,3.72,3.72,0,0,0,1.87.5.09.09,0,0,1,.08.08.09.09,0,0,1-.08.09v0Zm1-.13a.08.08,0,0,1-.08-.07s0-.08.05-.1a3.74,3.74,0,0,0,1.68-1,.07.07,0,0,1,.11,0,.08.08,0,0,1,0,.11,3.79,3.79,0,0,1-1.74,1Zm-3.69-1-.06,0a4,4,0,0,1-1-1.75.08.08,0,0,1,.16,0,3.76,3.76,0,0,0,1,1.67.09.09,0,0,1,0,.12Zm6-.79h0a.1.1,0,0,1,0-.12,3.68,3.68,0,0,0,.5-1.86v0a.08.08,0,0,1,.16,0v0a3.93,3.93,0,0,1-.52,1.95A.08.08,0,0,1,20.48,10.2ZM13.36,8.29a.08.08,0,0,1-.08-.07h0a3.89,3.89,0,0,1,.52-1.94.07.07,0,0,1,.11,0,.08.08,0,0,1,0,.11,3.68,3.68,0,0,0-.5,1.86A.08.08,0,0,1,13.36,8.29Zm7.5-1a.08.08,0,0,1-.08-.06,3.76,3.76,0,0,0-1-1.67.07.07,0,0,1,0-.12.08.08,0,0,1,.11,0,3.94,3.94,0,0,1,1,1.75.09.09,0,0,1-.06.1ZM14.47,5.6l-.06,0a.09.09,0,0,1,0-.12,3.83,3.83,0,0,1,1.75-1,.07.07,0,0,1,.1,0,.1.1,0,0,1-.06.11,3.67,3.67,0,0,0-1.67,1ZM19.07,5h0a3.74,3.74,0,0,0-1.85-.49h0a.09.09,0,0,1-.08-.09.09.09,0,0,1,.08-.08h0a3.83,3.83,0,0,1,1.94.52.07.07,0,0,1,0,.11A.07.07,0,0,1,19.07,5Z"/><path class="cls-2" d="M27.17,5.35H26a.91.91,0,0,1-.53-.18,14.59,14.59,0,0,0-8.3-3,15.11,15.11,0,0,0-8.4,3,.82.82,0,0,1-.52.18H7.05V5.18h1.2A.71.71,0,0,0,8.67,5a15.26,15.26,0,0,1,8.5-3,14.75,14.75,0,0,1,8.4,3,.71.71,0,0,0,.43.14h1.17Z"/><path class="cls-2" d="M17.17,14.33a15.18,15.18,0,0,1-8.5-3,.71.71,0,0,0-.42-.14H7.05V11h1.2a.87.87,0,0,1,.52.17,15,15,0,0,0,8.4,3,14.67,14.67,0,0,0,8.3-3A.85.85,0,0,1,26,11h1.17v.16H26a.66.66,0,0,0-.43.15A14.83,14.83,0,0,1,17.17,14.33Z"/><path class="cls-2" d="M16.59,3.5a.07.07,0,0,1-.08-.08V1.89a.39.39,0,0,0-.39-.39h-4A.08.08,0,0,1,12,1.41a.08.08,0,0,1,.08-.08h4a.56.56,0,0,1,.55.56V3.42A.08.08,0,0,1,16.59,3.5Z"/><circle class="cls-2" cx="12.12" cy="1.41" r="0.52"/><path class="cls-2" d="M17.79,3.5a.07.07,0,0,1-.08-.08V1.89a.55.55,0,0,1,.55-.56h4a.09.09,0,0,1,.08.08.09.09,0,0,1-.08.09h-4a.39.39,0,0,0-.39.39V3.42A.08.08,0,0,1,17.79,3.5Z"/><circle class="cls-2" cx="22.26" cy="1.41" r="0.52"/><path class="cls-2" d="M17.18,3.53a.09.09,0,0,1-.09-.08V.81a.09.09,0,0,1,.09-.08.09.09,0,0,1,.08.08V3.45A.09.09,0,0,1,17.18,3.53Z"/><circle class="cls-2" cx="17.18" cy="0.52" r="0.52"/><path class="cls-2" d="M16.12,15h-4a.08.08,0,1,1,0-.16h4a.4.4,0,0,0,.39-.39V12.94a.08.08,0,0,1,.08-.08.09.09,0,0,1,.08.08v1.54A.55.55,0,0,1,16.12,15Z"/><circle class="cls-2" cx="12.12" cy="14.95" r="0.52"/><path class="cls-2" d="M22.26,15h-4a.55.55,0,0,1-.55-.55V12.94a.08.08,0,0,1,.08-.08.09.09,0,0,1,.08.08v1.54a.4.4,0,0,0,.39.39h4a.08.08,0,0,1,0,.16Z"/><circle class="cls-2" cx="22.26" cy="14.95" r="0.52"/><path class="cls-2" d="M17.18,15.63a.08.08,0,0,1-.09-.08V12.92a.09.09,0,0,1,.09-.09.09.09,0,0,1,.08.09v2.63A.08.08,0,0,1,17.18,15.63Z"/><circle class="cls-2" cx="17.18" cy="15.85" r="0.52"/></g></g></svg>