<svg xmlns="http://www.w3.org/2000/svg" viewBox="0 0 347.01 200.73"><defs><style>.cls-1{opacity:0.1;}.cls-2{fill:#0071bc;}</style></defs><title>Asset 1</title><g id="Layer_2" data-name="Layer 2"><g id="Layer_1-2" data-name="Layer 1"><g class="cls-1"><text/><path class="cls-2" d="M339.36,99.27l-46.38,0a7,7,0,0,1-5.49-2.61C279.21,86.55,234.85,35.84,174,35.91,113,36,66.44,86.91,57.73,97.12a7.06,7.06,0,0,1-5.37,2.48l-43.74.05a1.26,1.26,0,0,1,0-2.51l43.74,0a4.53,4.53,0,0,0,3.46-1.59c8.84-10.36,56.07-62,118.18-62.1S281,84.81,289.43,95.13A4.53,4.53,0,0,0,293,96.81l46.38,0a1.26,1.26,0,0,1,0,2.51Z"/><path class="cls-2" d="M174.11,132.1C112,132.17,64.65,80.62,55.79,70.28a4.55,4.55,0,0,0-3.46-1.59l-43.74,0a1.25,1.25,0,1,1,0-2.5l43.73,0a7,7,0,0,1,5.38,2.46c8.73,10.19,55.4,61,116.41,60.95,60.86-.07,105.1-50.89,113.35-61.07a7,7,0,0,1,5.48-2.62l46.38,0a1.25,1.25,0,0,1,0,2.5L293,68.42a4.52,4.52,0,0,0-3.55,1.69C281,80.45,236.1,132,174.11,132.1Z"/><path class="cls-2" d="M57.73,113.63l-33.69,0a1.26,1.26,0,1,1,0-2.51l33.69,0a2.72,2.72,0,0,0,1.88-.77L85.65,85.22a2.62,2.62,0,0,0,.83-2,2.72,2.72,0,0,0-.83-2l-27-25.83a2.71,2.71,0,0,0-1.88-.76l-32.8,0a1.25,1.25,0,0,1-1.25-1.25A1.24,1.24,0,0,1,24,52.26l32.8,0a5.18,5.18,0,0,1,3.61,1.45l27,25.83A5.15,5.15,0,0,1,89,83.26,5.21,5.21,0,0,1,87.4,87L61.35,112.17A5.22,5.22,0,0,1,57.73,113.63Z"/><path class="cls-2" d="M86.35,69.63a1.29,1.29,0,0,1-.89-.37l-28-28.11a3.59,3.59,0,0,0-2.55-1.06l-46.35,0a1.25,1.25,0,1,1,0-2.5l46.36-.06a6.11,6.11,0,0,1,4.32,1.8l28,28.11a1.25,1.25,0,0,1,0,1.77A1.34,1.34,0,0,1,86.35,69.63Z"/><path class="cls-2" d="M55,128.42l-46.35.05a1.25,1.25,0,1,1,0-2.5L55,125.91a3.55,3.55,0,0,0,2.54-1.06l28-28.17a1.25,1.25,0,1,1,1.78,1.76L59.33,126.62A6.13,6.13,0,0,1,55,128.42Z"/><circle class="cls-2" cx="5.22" cy="38.85" r="5.22"/><circle class="cls-2" cx="19.58" cy="53.51" r="5.22"/><circle class="cls-2" cx="19.65" cy="112.42" r="5.22"/><circle class="cls-2" cx="5.26" cy="67.86" r="5.22"/><circle class="cls-2" cx="5.29" cy="98.4" r="5.22"/><circle class="cls-2" cx="5.32" cy="127.23" r="5.22"/><path class="cls-2" d="M323,113.33l-33.68,0a5.17,5.17,0,0,1-3.63-1.45L259.62,86.83a5.23,5.23,0,0,1,0-7.53l26.94-25.89A5.19,5.19,0,0,1,290.17,52l32.8,0a1.26,1.26,0,1,1,0,2.51l-32.8,0a2.72,2.72,0,0,0-1.88.75l-26.94,25.9a2.72,2.72,0,0,0,0,3.91l26.11,25.08a2.71,2.71,0,0,0,1.88.76l33.69,0a1.26,1.26,0,1,1,0,2.51Z"/><path class="cls-2" d="M260.63,69.42a1.28,1.28,0,0,1-.89-.36,1.25,1.25,0,0,1,0-1.77l27.94-28.18a6.13,6.13,0,0,1,4.32-1.8l46.35-.05a1.25,1.25,0,1,1,0,2.5L292,39.82a3.53,3.53,0,0,0-2.54,1.06L261.51,69.05A1.21,1.21,0,0,1,260.63,69.42Z"/><path class="cls-2" d="M338.46,128.09l-46.36.06a6.05,6.05,0,0,1-4.32-1.8l-28-28.11a1.26,1.26,0,1,1,1.78-1.77l28,28.11a3.55,3.55,0,0,0,2.55,1.06l46.36,0a1.25,1.25,0,0,1,0,2.5Z"/><circle class="cls-2" cx="341.69" cy="38.46" r="5.22"/><circle class="cls-2" cx="327.36" cy="53.16" r="5.22"/><circle class="cls-2" cx="327.43" cy="112.07" r="5.22"/><circle class="cls-2" cx="341.72" cy="67.47" r="5.22"/><circle class="cls-2" cx="341.75" cy="98.01" r="5.22"/><circle class="cls-2" cx="341.79" cy="126.84" r="5.22"/><path class="cls-2" d="M174.11,132.64A49.48,49.48,0,1,1,223.54,83.1,49.53,49.53,0,0,1,174.11,132.64ZM174,36.19a47,47,0,1,0,47,46.92A47,47,0,0,0,174,36.19Z"/><path class="cls-2" d="M174.08,110.18a27,27,0,1,1,27-27.05A27,27,0,0,1,174.08,110.18ZM174,58.65a24.52,24.52,0,1,0,24.54,24.48A24.53,24.53,0,0,0,174,58.65Z"/><path class="cls-2" d="M174.07,93.11a10,10,0,1,1,9.93-10A10,10,0,0,1,174.07,93.11Zm0-17.39a7.45,7.45,0,1,0,7.45,7.43A7.45,7.45,0,0,0,174.05,75.72Z"/><path class="cls-2" d="M174.08,102.64a19.4,19.4,0,0,1-8.83-2.1,1.38,1.38,0,0,0-.9-.49,19.51,19.51,0,0,1-5.4-4.59,1.25,1.25,0,0,1,1.94-1.59,17,17,0,0,0,4.72,4,1.37,1.37,0,0,1,.34.29,1.39,1.39,0,0,1,.44.13,17,17,0,0,0,10.35,1.62,1.25,1.25,0,1,1,.4,2.47A19.63,19.63,0,0,1,174.08,102.64Zm9.12-2.46a1.25,1.25,0,0,1-.64-2.33c.26-.15.51-.31.76-.47a1.24,1.24,0,0,1,1.73.36,1.26,1.26,0,0,1-.36,1.74c-.28.18-.57.36-.87.53A1.16,1.16,0,0,1,183.2,100.18Zm7.88-9.26a1.19,1.19,0,0,1-.45-.08,1.25,1.25,0,0,1-.72-1.62A17,17,0,0,0,191,83.14a1.28,1.28,0,0,1,.09-.48,1.41,1.41,0,0,1-.12-.47,16.76,16.76,0,0,0-3.8-9.77,1.25,1.25,0,0,1,1.94-1.58,19.36,19.36,0,0,1,4.37,11.21,1.24,1.24,0,0,1-.08.51,1.23,1.23,0,0,1,.11.51v.07a19.53,19.53,0,0,1-1.28,7A1.25,1.25,0,0,1,191.08,90.92Zm-35.22-5.5a1.24,1.24,0,0,1-1.25-1.18q0-.51,0-1A1.26,1.26,0,0,1,155.83,82h0a1.25,1.25,0,0,1,1.25,1.25c0,.3,0,.6,0,.89a1.25,1.25,0,0,1-1.18,1.32ZM157,77.94a1.42,1.42,0,0,1-.45-.08,1.25,1.25,0,0,1-.72-1.62,19.6,19.6,0,0,1,7.54-9.37,1.1,1.1,0,0,1,.48-.19,1.27,1.27,0,0,1,.38-.35,19.25,19.25,0,0,1,6.68-2.39,1.25,1.25,0,1,1,.4,2.47,16.59,16.59,0,0,0-5.82,2.09,1.32,1.32,0,0,1-.42.15,1.22,1.22,0,0,1-.33.31,17.12,17.12,0,0,0-6.57,8.17A1.26,1.26,0,0,1,157,77.94Zm26.08-9.35a1.28,1.28,0,0,1-.63-.16l-.78-.43a1.25,1.25,0,0,1,1.13-2.23q.47.23.9.48a1.25,1.25,0,0,1,.46,1.71A1.23,1.23,0,0,1,183.1,68.59Z"/><path class="cls-2" d="M174.13,123.48A40.26,40.26,0,0,1,154,118.13a1.67,1.67,0,1,1,1.66-2.89,37.06,37.06,0,0,0,18.44,4.9h0a1.67,1.67,0,1,1,0,3.34v0Zm10-1.33a1.67,1.67,0,0,1-.43-3.28,37,37,0,0,0,16.54-9.6,1.67,1.67,0,1,1,2.37,2.35,40.28,40.28,0,0,1-18,10.47A1.67,1.67,0,0,1,184.13,122.15Zm-37.33-9.92a1.65,1.65,0,0,1-1.18-.49,40.33,40.33,0,0,1-10.49-18,1.67,1.67,0,1,1,3.23-.87A37,37,0,0,0,148,109.38a1.67,1.67,0,0,1,0,2.36A1.63,1.63,0,0,1,146.8,112.23Zm60.76-8.12a1.7,1.7,0,0,1-.84-.22,1.68,1.68,0,0,1-.61-2.29A37,37,0,0,0,211,83.12V83a1.67,1.67,0,1,1,3.34,0v.13A40.28,40.28,0,0,1,209,103.27,1.66,1.66,0,0,1,207.56,104.11ZM135.41,84.92a1.64,1.64,0,0,1-1.67-1.64h1.67l-1.67,0a40.32,40.32,0,0,1,5.32-20.12,1.67,1.67,0,1,1,2.9,1.66,37,37,0,0,0-4.88,18.42A1.72,1.72,0,0,1,135.41,84.92Zm75.93-10.27a1.67,1.67,0,0,1-1.61-1.24,37,37,0,0,0-9.65-16.51,1.67,1.67,0,0,1,2.35-2.38,40.46,40.46,0,0,1,10.53,18,1.68,1.68,0,0,1-1.18,2A1.61,1.61,0,0,1,211.34,74.65ZM146.63,57.6a1.67,1.67,0,0,1-1.19-2.84,40.37,40.37,0,0,1,18-10.51,1.67,1.67,0,0,1,.87,3.23,37,37,0,0,0-16.53,9.63A1.63,1.63,0,0,1,146.63,57.6Zm46.6-6.33a1.66,1.66,0,0,1-.83-.22A36.94,36.94,0,0,0,174,46.19h-.11a1.68,1.68,0,1,1,0-3.35H174a40.4,40.4,0,0,1,20.05,5.31,1.67,1.67,0,0,1-.83,3.12Z"/><path class="cls-2" d="M275.25,54.47l-11.86,0a9.33,9.33,0,0,1-5.63-1.91c-9.33-7.1-42.92-30.26-83.86-30.21S98.67,45.7,89.15,52.84a9.17,9.17,0,0,1-5.55,1.85l-12.11,0V52.2h12.1a6.68,6.68,0,0,0,4.06-1.36c9.67-7.25,44.47-30.92,86.25-31s75.9,23.51,85.37,30.73A6.84,6.84,0,0,0,263.39,52h11.86Z"/><path class="cls-2" d="M174,145.63c-41.78.05-76.63-23.54-86.32-30.78a6.72,6.72,0,0,0-4-1.34H71.56V111l12.1,0a9.2,9.2,0,0,1,5.56,1.85C98.75,120,133,143.17,174,143.12s74.48-23.29,83.79-30.41a9.33,9.33,0,0,1,5.63-1.91l11.86,0v2.51H263.46a6.8,6.8,0,0,0-4.11,1.4C249.89,121.94,215.76,145.58,174,145.63Z"/><path class="cls-2" d="M168.06,35.91a1.24,1.24,0,0,1-1.25-1.25l0-15.52a3.56,3.56,0,0,0-3.56-3.55l-40.49.05a1.26,1.26,0,0,1,0-2.51l40.5-.05a6.08,6.08,0,0,1,6.07,6.06V34.66A1.25,1.25,0,0,1,168.06,35.91Z"/><circle class="cls-2" cx="122.73" cy="14.38" r="5.22"/><path class="cls-2" d="M180.2,35.9A1.25,1.25,0,0,1,179,34.65l0-15.53a6.06,6.06,0,0,1,6-6.06l40.5-.05a1.26,1.26,0,0,1,0,2.51l-40.5.05a3.54,3.54,0,0,0-3.54,3.55V34.65A1.24,1.24,0,0,1,180.2,35.9Z"/><circle class="cls-2" cx="225.48" cy="14.27" r="5.22"/><path class="cls-2" d="M174,36.19a1.27,1.27,0,0,1-1.26-1.26l0-26.7a1.26,1.26,0,0,1,2.51,0l0,26.71A1.26,1.26,0,0,1,174,36.19Z"/><circle class="cls-2" cx="173.96" cy="5.22" r="5.22"/><path class="cls-2" d="M163.39,152.72l-40.5.05a1.26,1.26,0,0,1,0-2.51l40.5,0a3.57,3.57,0,0,0,3.55-3.56l0-15.52a1.25,1.25,0,1,1,2.5,0l0,15.53A6.05,6.05,0,0,1,163.39,152.72Z"/><circle class="cls-2" cx="122.89" cy="151.52" r="5.22"/><path class="cls-2" d="M225.64,152.65l-40.5,0a6.06,6.06,0,0,1-6.06-6l0-15.53a1.26,1.26,0,0,1,2.51,0v15.52a3.57,3.57,0,0,0,3.56,3.55l40.5-.05a1.26,1.26,0,0,1,0,2.51Z"/><circle class="cls-2" cx="225.64" cy="151.4" r="5.22"/><path class="cls-2" d="M174.14,158.81a1.25,1.25,0,0,1-1.25-1.25l0-26.71a1.25,1.25,0,0,1,2.5,0l0,26.71A1.25,1.25,0,0,1,174.14,158.81Z"/><circle class="cls-2" cx="174.14" cy="160.56" r="5.22"/></g><path d="M31.72,60.09l.05,49.17c0,1-.46,1.48-1.38,1.48a1.3,1.3,0,0,1-1.48-1.47L28.85,58.7a1.51,1.51,0,0,1,.39-1,1.38,1.38,0,0,1,1.09-.43l17.28,0a27.54,27.54,0,0,1,5.78.55,11.62,11.62,0,0,1,4.52,2,9.33,9.33,0,0,1,2.92,3.69,14.29,14.29,0,0,1,1.05,5.78q0,12.24-13.72,12.26H45.47A1.5,1.5,0,0,1,44,80a1.29,1.29,0,0,1,.43-1,1.52,1.52,0,0,1,1-.39h2.69c3.36,0,6-.67,8-2s2.9-3.8,2.9-7.39a10.9,10.9,0,0,0-.83-4.56,6.75,6.75,0,0,0-2.31-2.78,9.47,9.47,0,0,0-3.6-1.38,25.86,25.86,0,0,0-4.65-.39Zm23.94,44.28a1.18,1.18,0,0,1,.22,1,1.66,1.66,0,0,1-.56,1,1.47,1.47,0,0,1-.87.26,1.29,1.29,0,0,1-1.13-.69l-16.89-25a1.28,1.28,0,0,1,.44-2,1,1,0,0,1,.78-.26,1.75,1.75,0,0,1,1.21.6ZM38,92.75a1.23,1.23,0,0,1,1.39,1.39l0,15.11c0,1-.46,1.48-1.39,1.48a1.51,1.51,0,0,1-1-.39,1.38,1.38,0,0,1-.44-1.08V94.14a1.29,1.29,0,0,1,.43-1A1.51,1.51,0,0,1,38,92.75ZM53,87.87l14.1,20.57a1.3,1.3,0,0,1-.35,2,1.28,1.28,0,0,1-.78.26,1.41,1.41,0,0,1-1.22-.61L49.21,87.35a1.25,1.25,0,0,1-.09-1.48,1.41,1.41,0,0,1,1.31-.78A18.85,18.85,0,0,0,57.11,84a14.79,14.79,0,0,0,5.21-3.22,14,14,0,0,0,3.34-5A18.05,18.05,0,0,0,66.83,69q0-8.34-4.19-12T50.39,53.29l-12.34,0c-.92,0-1.39-.49-1.39-1.48a1.23,1.23,0,0,1,1.39-1.39H50.39q9.2,0,14.25,4.45t5,14.12q0,8-4.46,12.9T53,87.87Zm4.71,19.8a1.35,1.35,0,0,1,1,.74,1.91,1.91,0,0,1,.09,1.26h-.09a1.34,1.34,0,0,1-1.48,1,2.11,2.11,0,0,1-1.3-.82,1.42,1.42,0,0,1-.17-1.18v-.08a1.5,1.5,0,0,1,1.47-1A1.15,1.15,0,0,1,57.66,107.67Z"/><path d="M84.91,78.19a1.44,1.44,0,0,1-1-.44,1.4,1.4,0,0,1-.43-1l0-25.37a1.47,1.47,0,0,1,1.47-1.47,1.24,1.24,0,0,1,1,.43,1.52,1.52,0,0,1,.4,1l0,24,22.33,0a1.49,1.49,0,0,1,1,.39,1.3,1.3,0,0,1,.44,1,1.49,1.49,0,0,1-1.48,1.48Zm0,32.84a1.43,1.43,0,0,1-1-.44,1.4,1.4,0,0,1-.43-1l0-25.19a1.44,1.44,0,0,1,.43-1,1.42,1.42,0,0,1,1-.43l23.72,0a1.46,1.46,0,0,1,1,.43,1.44,1.44,0,0,1,.44,1,1.3,1.3,0,0,1-.44,1,1.49,1.49,0,0,1-1,.39l-22.32,0,0,22.42,30.15,0a1.23,1.23,0,0,1,1.39,1.39,1.49,1.49,0,0,1-.39,1,1.28,1.28,0,0,1-1,.44ZM92,53a1.26,1.26,0,0,1-1-.43,1.49,1.49,0,0,1-.39-1A1.23,1.23,0,0,1,92,50.12l24.41,0a1.51,1.51,0,0,1,1,.39,1.28,1.28,0,0,1,.44,1,1.46,1.46,0,0,1-.43,1,1.44,1.44,0,0,1-1,.44Zm24.25,4.67a1.47,1.47,0,0,1,1.47,1.47,1.27,1.27,0,0,1-.43,1,1.51,1.51,0,0,1-1,.39l-22.5,0v9.73a1.49,1.49,0,0,1-1.48,1.48,1.3,1.3,0,0,1-1-.43,1.52,1.52,0,0,1-.39-1V59.15a1.51,1.51,0,0,1,.39-1,1.27,1.27,0,0,1,1-.43ZM92.3,89a1.52,1.52,0,0,1,1,.39,1.37,1.37,0,0,1,.43,1.08v10.26l17.38,0a1.38,1.38,0,0,1,1,.43,1.43,1.43,0,0,1,.44,1,1.31,1.31,0,0,1-.43,1,1.54,1.54,0,0,1-1,.39l-18.85,0a1.23,1.23,0,0,1-1.39-1.39V90.52C90.91,89.53,91.38,89,92.3,89Zm24.26,11.61a1.34,1.34,0,0,1,.87.74,1.63,1.63,0,0,1,.08,1.17v.09a1.51,1.51,0,0,1-1.47,1,2.06,2.06,0,0,1-1.31-.82,1.57,1.57,0,0,1-.17-1.26,1.5,1.5,0,0,1,1.47-1A1.09,1.09,0,0,1,116.56,100.65Z"/><path d="M128.3,110.72c-1.16-.35-1.6-1-1.31-1.91L148.3,51.36a1.43,1.43,0,0,1,1.38-1h1.22a1.45,1.45,0,0,1,1.39,1l10.38,31.53a1.57,1.57,0,0,1-.09,1.13,1.31,1.31,0,0,1-.87.69.39.39,0,0,0-.21,0,.35.35,0,0,1-.22.05,1.46,1.46,0,0,1-1.39-1L150.21,54.4l-20.53,55.45A1.46,1.46,0,0,1,128.3,110.72Zm8.16.16a2.08,2.08,0,0,1-1.3-.82,1.62,1.62,0,0,1-.18-1.26,1.51,1.51,0,0,1,1.48-1.13.62.62,0,0,1,.26,0,.59.59,0,0,0,.26,0,1.64,1.64,0,0,1,.87.83,1.68,1.68,0,0,1,.09,1.17v.09A1.51,1.51,0,0,1,136.46,110.88ZM138,106.1c-1.16-.35-1.59-1-1.3-1.91l12-35.63a1.56,1.56,0,0,1,1.39-1,.62.62,0,0,1,.26,0,.37.37,0,0,0,.17,0,1.28,1.28,0,0,1,.87.73,1.4,1.4,0,0,1,.09,1.09l-12.12,35.63A1.45,1.45,0,0,1,138,106.1Zm30.15-.12a1.22,1.22,0,0,1-1.31-1l-2.18-6.51-17.29,0a1.3,1.3,0,0,1-1-.43,1.51,1.51,0,0,1-.39-1,1.23,1.23,0,0,1,1.39-1.4l18.33,0a1.45,1.45,0,0,1,1.39,1l2.44,7.55a1.31,1.31,0,0,1-.08,1,1.32,1.32,0,0,1-.87.7Zm9.3,4.68a1.45,1.45,0,0,1-1.39-.87l-7-18.93-19.28,0a1.38,1.38,0,0,1-1.09-.43,1.51,1.51,0,0,1-.39-1c0-.93.49-1.39,1.47-1.39l20.33,0a1.41,1.41,0,0,1,1.31.78l7.32,20a1.28,1.28,0,0,1-.87,1.82Zm-9.59-26a1.42,1.42,0,0,1-1.39-1l-8.72-26.66a1.28,1.28,0,0,1,.87-1.83,1.06,1.06,0,0,1,.43-.08,1.34,1.34,0,0,1,1.39.95l8.81,26.66a1.51,1.51,0,0,1-.09,1.13,1.33,1.33,0,0,1-.86.7Z"/><path d="M211.26,110.71a1.35,1.35,0,0,1-1.39-1L189.3,52.35a1.47,1.47,0,0,1,.09-1.13,1.64,1.64,0,0,1,.78-.78.83.83,0,0,0,.26,0,.57.57,0,0,1,.26,0,1.29,1.29,0,0,1,1.3,1l20.57,57.4a1.41,1.41,0,0,1-.86,1.91Zm6.61,0a1.54,1.54,0,0,1-1.4-1L199.21,58.33a1.28,1.28,0,0,1,.87-1.82.91.91,0,0,1,.43-.09,1.26,1.26,0,0,1,1.39,1l16,47.41,18.61-53.45a1.24,1.24,0,0,1,1.31-1,.62.62,0,0,1,.26,0,.56.56,0,0,0,.26,0,1.29,1.29,0,0,1,.78.74,1.49,1.49,0,0,1,.09,1.09l-20,57.44A1.24,1.24,0,0,1,217.87,110.7Zm-.38-22.5a1.65,1.65,0,0,1-1.26-.74,1.31,1.31,0,0,1-.13-1.08L226.4,56.3a1.45,1.45,0,0,1,1.39-.95.8.8,0,0,1,.44.08,1.37,1.37,0,0,1,.87.7,1.51,1.51,0,0,1,.08,1.13l-10.3,30A1.45,1.45,0,0,1,217.49,88.2Zm12-34.85a2.11,2.11,0,0,1-1.31-.83,1.56,1.56,0,0,1-.17-1.26,1.21,1.21,0,0,1,.78-.91,4.88,4.88,0,0,1,1.21-.13,1.65,1.65,0,0,1,1,2v.08A1.51,1.51,0,0,1,229.53,53.35Z"/><path d="M258.43,104.31l0-22.5h-6.51a1.24,1.24,0,0,1-1.4-1.39l0-29.1a1.52,1.52,0,0,1,.39-1,1.27,1.27,0,0,1,1-.43,1.49,1.49,0,0,1,1.48,1.47l0,27.63h6.43a1.46,1.46,0,0,1,1,.43,1.44,1.44,0,0,1,.44,1l0,23.89a1.26,1.26,0,0,1-.43,1,1.51,1.51,0,0,1-1,.39A1.23,1.23,0,0,1,258.43,104.31Zm-7.84-16.06A1.23,1.23,0,0,1,252,86.86c1,0,1.48.46,1.48,1.38l0,21c0,.93-.49,1.39-1.47,1.39a1.23,1.23,0,0,1-1.39-1.39Zm8.71,22.4a1.3,1.3,0,0,1-.87-.78,1.77,1.77,0,0,1-.08-1.22v-.08a1.5,1.5,0,0,1,1.47-1,.57.57,0,0,1,.26,0,.62.62,0,0,0,.26,0,1.33,1.33,0,0,1,1,.78,1.52,1.52,0,0,1,0,1.22v.08a1.33,1.33,0,0,1-1.47,1Zm2-38a1.28,1.28,0,0,1-.44,1,1.48,1.48,0,0,1-1,.4,1.23,1.23,0,0,1-1.39-1.39l0-14.94a1.52,1.52,0,0,1,.39-1,1.29,1.29,0,0,1,1-.43,1.44,1.44,0,0,1,1.05.43,1.42,1.42,0,0,1,.43,1Z"/><path d="M317.89,63.41a1.23,1.23,0,0,1,.18,2L280,107.76l36.83,0a1.54,1.54,0,0,1,1.05.39,1.31,1.31,0,0,1,.43,1,1.42,1.42,0,0,1-.43,1,1.47,1.47,0,0,1-1,.44l-40.05,0a1.21,1.21,0,0,1-1.31-.87,1.31,1.31,0,0,1,.17-1.56l40.26-44.7a1.25,1.25,0,0,1,1-.44A1.3,1.3,0,0,1,317.89,63.41Zm1-12.77a1.31,1.31,0,0,1-.17,1.56l-39.57,44a1.6,1.6,0,0,1-1.13.52,1.83,1.83,0,0,1-.95-.43,1.57,1.57,0,0,1-.48-1,1.22,1.22,0,0,1,.39-1L314.4,52.64l-36.74,0a1.23,1.23,0,0,1-1.4-1.38,1.52,1.52,0,0,1,.39-1,1.29,1.29,0,0,1,1-.43l40,0A1.21,1.21,0,0,1,318.92,50.64Zm-20.75,9.58-14.51,0c-1,0-1.48-.47-1.48-1.39a1.52,1.52,0,0,1,.39-1.05,1.38,1.38,0,0,1,1.09-.43l14.5,0a1.47,1.47,0,0,1,1,.43,1.43,1.43,0,0,1,.43,1,1.29,1.29,0,0,1-.43,1A1.51,1.51,0,0,1,298.17,60.22Zm-5.95,39.88,19.63,0a1.49,1.49,0,0,1,1,.39,1.28,1.28,0,0,1,.44,1,1.37,1.37,0,0,1-.43,1.08,1.53,1.53,0,0,1-1,.4l-19.63,0a1.51,1.51,0,0,1-1-.39,1.39,1.39,0,0,1-.44-1.09,1.3,1.3,0,0,1,.44-1A1.48,1.48,0,0,1,292.22,100.1Zm25-.11a1.33,1.33,0,0,1,.87.73,1.92,1.92,0,0,1,.09,1.26,1.35,1.35,0,0,1-1.48,1,2.09,2.09,0,0,1-1.3-.83,1.36,1.36,0,0,1-.18-1.17v-.09a1.51,1.51,0,0,1,1.48-1A1.18,1.18,0,0,1,317.24,100Z"/></g></g></svg>